<svg xmlns="http://www.w3.org/2000/svg" width="48.579" height="52.366" viewBox="0 0 48.579 52.366">
    <defs>
        <style>
            .cls-1{fill:#fff;stroke:#231f20;stroke-miterlimit:10;stroke-width:3px}
        </style>
    </defs>
    <path id="XMLID_23_" d="M11.041 40.622s-4.512-7.882-7.6-13.707c-3.023-5.825-2.109-6.568.059-7.539 1.314-.571 3.884 2.285 5.14 3.827.228.286.171.114.171-.286V3.727c0-1.2 1.028-2.227 2.741-2.227a2.23 2.23 0 0 1 2.227 2.227v9.652l.857-.857a3.554 3.554 0 0 1 2.464-1.027 3.414 3.414 0 0 1 2.456 1.028 1.994 1.994 0 0 1 .571 1.371v1.77l.685-.685a2.642 2.642 0 0 1 1.828-.742 2.642 2.642 0 0 1 1.828.742 2.72 2.72 0 0 1 .8 1.942V19.2l.457-.457a2.72 2.72 0 0 1 1.942-.8 2.72 2.72 0 0 1 1.942.8 2.287 2.287 0 0 1 .685 1.656V31.6A9.757 9.757 0 0 1 29.26 36l-2.342 4.626z" class="cls-1" transform="rotate(-30 29.653 7.97)"/>
</svg>
