<svg xmlns="http://www.w3.org/2000/svg"><defs><style>.cls-1{fill:#212121}</style><style>.cls-1{fill:#fff}</style><linearGradient id="a" x1=".5" x2=".5" y2="1" gradientUnits="objectBoundingBox"><stop offset="0" stop-color="#0ccfc4"/><stop offset="1" stop-color="#066862"/></linearGradient></defs><symbol id="logo_black"><g id="logo_bk" data-name="logo bk" transform="translate(0 .001)"><path id="Path_350" d="M150.812 257.262a2.6 2.6 0 01-.4-.22l-.149-.085a1.252 1.252 0 00-.192-.1.5.5 0 00-.17 0 .426.426 0 00-.3.114 1.853 1.853 0 00-.255.319l-.44-.241a2.129 2.129 0 01.433-.582.859.859 0 01.6-.227.979.979 0 01.369.071 4.259 4.259 0 01.4.22l.284.17a.475.475 0 00.22.05.433.433 0 00.291-.106 1.419 1.419 0 00.255-.3l.44.241a2.129 2.129 0 01-.426.561.844.844 0 01-.589.22.944.944 0 01-.383-.106z" class="cls-1" data-name="Path 350" transform="translate(-107.711 -187.402)"/><path id="Path_351" d="M161.646 252.413a2.654 2.654 0 01.752.5l-.44.454a2.448 2.448 0 00-.568-.355 1.71 1.71 0 00-.617-.106 1.341 1.341 0 00-1.121.582 3.158 3.158 0 00-.44 1.895 3.654 3.654 0 00.369 1.909 1.206 1.206 0 001.107.582 1.845 1.845 0 00.979-.27v-1.888h-.922l-.085-.639h1.8v2.909a3.207 3.207 0 01-1.774.539 2.051 2.051 0 01-1.731-.781 3.86 3.86 0 01-.61-2.37 4.151 4.151 0 01.326-1.724 2.441 2.441 0 01.873-1.05 2.214 2.214 0 011.213-.348 2.271 2.271 0 01.887.163z" class="cls-1" data-name="Path 351" transform="translate(-110.448 -186.243)"/><path id="Path_352" d="M169.1 258.316a.519.519 0 00.248.206l-.17.532a1.079 1.079 0 01-.532-.213.823.823 0 01-.277-.483 1.419 1.419 0 01-1.256.71 1.277 1.277 0 01-.972-.376 1.419 1.419 0 01-.362-1.029 1.355 1.355 0 01.483-1.121 2.129 2.129 0 011.377-.39h.6v-.39a1.036 1.036 0 00-.2-.71.852.852 0 00-.646-.213 3.2 3.2 0 00-1.128.241l-.192-.553a3.917 3.917 0 011.419-.312 1.327 1.327 0 011.5 1.5v2.185a.916.916 0 00.1.419zm-.859-.568v-1.064h-.511c-.766 0-1.142.319-1.142.958a.923.923 0 00.184.632.639.639 0 00.525.22 1.036 1.036 0 00.944-.717z" class="cls-1" data-name="Path 352" transform="translate(-112.609 -186.81)"/><path id="Path_353" d="M172.97 258.082a.965.965 0 01-.241-.71V251.7l.788-.085v5.677c0 .234.092.348.284.348a.8.8 0 00.255-.057l.17.553a1.227 1.227 0 01-.589.149.887.887 0 01-.667-.2z" class="cls-1" data-name="Path 353" transform="translate(-114.627 -186.058)"/><path id="Path_354" d="M179.353 254.874a3.434 3.434 0 010 3.548 1.632 1.632 0 01-1.377.653 1.668 1.668 0 01-1.419-.639 3.476 3.476 0 01.007-3.569 1.668 1.668 0 011.419-.639 1.646 1.646 0 011.37.646zm-2.171.44a2.689 2.689 0 00-.27 1.362c0 1.2.355 1.8 1.057 1.8s1.05-.6 1.05-1.809a2.64 2.64 0 00-.263-1.348.852.852 0 00-.781-.433.88.88 0 00-.795.433z" class="cls-1" data-name="Path 354" transform="translate(-115.596 -186.817)"/><path id="Path_355" d="M185.732 254.32l-.135.766a1.128 1.128 0 00-.355-.05.759.759 0 00-.632.305 2.533 2.533 0 00-.383.944V259h-.788v-4.619h.71l.064.915q.341-1.022 1.15-1.022a1.321 1.321 0 01.369.05z" class="cls-1" data-name="Path 355" transform="translate(-117.738 -186.83)"/><path id="Path_356" d="M191.309 256.956h-2.654a1.98 1.98 0 00.326 1.164.944.944 0 00.788.355 1.561 1.561 0 00.568-.092 1.929 1.929 0 00.525-.319l.348.468a2.129 2.129 0 01-1.476.575 1.668 1.668 0 01-1.419-.624 2.76 2.76 0 01-.5-1.76 3.03 3.03 0 01.475-1.8 1.66 1.66 0 012.6-.071 2.789 2.789 0 01.447 1.7c-.014.113-.014.255-.028.404zm-.745-.653q0-1.419-.958-1.419a.8.8 0 00-.71.362 2.285 2.285 0 00-.291 1.185h1.944z" class="cls-1" data-name="Path 356" transform="translate(-119.008 -186.826)"/><path id="Path_357" d="M199.822 254.643a1.568 1.568 0 01.3 1v3.363h-.781v-3.278c0-.561-.184-.844-.546-.844s-.674.277-.965.809v3.314h-.766v-3.278c0-.561-.185-.844-.546-.844s-.71.277-.965.809v3.314h-.781v-4.619h.71l.064.71a1.462 1.462 0 011.228-.788.965.965 0 01.646.22 1.242 1.242 0 01.376.624 1.5 1.5 0 011.27-.844.965.965 0 01.759.333z" class="cls-1" data-name="Path 357" transform="translate(-121.029 -186.841)"/><path id="Path_358" d="M207.8 256.956h-2.689a1.93 1.93 0 00.326 1.164.944.944 0 00.788.355 1.59 1.59 0 00.568-.092 1.929 1.929 0 00.525-.319l.348.468a2.129 2.129 0 01-1.476.575 1.668 1.668 0 01-1.419-.624 2.76 2.76 0 01-.5-1.76 3.03 3.03 0 01.475-1.8 1.66 1.66 0 012.6-.071 2.789 2.789 0 01.447 1.7 1.959 1.959 0 01.007.404zm-.745-.653q0-1.419-.958-1.419a.8.8 0 00-.71.362 2.285 2.285 0 00-.291 1.185h1.944z" class="cls-1" data-name="Path 358" transform="translate(-123.788 -186.826)"/><path id="Path_359" d="M214.181 254.633a1.476 1.476 0 01.312 1.008V259h-.788v-3.26a1.079 1.079 0 00-.149-.646.532.532 0 00-.454-.2c-.39 0-.71.277-1.057.823V259h-.795v-4.619h.71l.064.71a1.554 1.554 0 011.32-.795 1.064 1.064 0 01.837.334z" class="cls-1" data-name="Path 359" transform="translate(-125.814 -186.838)"/><path id="Path_360" d="M224.6 252.4l-.092.632h-2.129v2h1.817v.624h-1.817v2.129h2.214v.639h-3.03v-6.044z" class="cls-1" data-name="Path 360" transform="translate(-128.808 -186.281)"/><path id="Path_361" d="M230.195 254.785l-.333.468a2.631 2.631 0 00-.525-.291 1.419 1.419 0 00-.518-.1.859.859 0 00-.568.17.575.575 0 00-.206.475.56.56 0 00.2.454 2.13 2.13 0 00.71.341 2.491 2.491 0 011.015.539 1.185 1.185 0 01.312.866 1.228 1.228 0 01-.475 1.029 1.845 1.845 0 01-1.185.369 2.2 2.2 0 01-1.59-.624l.4-.433a1.838 1.838 0 001.171.447.943.943 0 00.624-.2.653.653 0 00.234-.532.8.8 0 00-.085-.4.709.709 0 00-.3-.27 4.031 4.031 0 00-.624-.248 2.235 2.235 0 01-.951-.525 1.107 1.107 0 01-.291-.781 1.164 1.164 0 01.192-.66 1.369 1.369 0 01.539-.461 1.838 1.838 0 01.788-.163 2.129 2.129 0 011.466.53z" class="cls-1" data-name="Path 361" transform="translate(-130.397 -186.827)"/><path id="Path_362" d="M235.463 258.365a1.639 1.639 0 01-.979.312 1.143 1.143 0 01-.866-.319 1.32 1.32 0 01-.305-.915v-2.9h-.653v-.6h.653v-1.064l.795-.1v1.164h1.015l-.085.6h-.93v2.9c0 .4.163.6.5.6a.872.872 0 00.277-.043c.085-.035.184-.078.291-.135z" class="cls-1" data-name="Path 362" transform="translate(-132.032 -186.397)"/><path id="Path_363" d="M238.481 259.683a.561.561 0 01.149.39.575.575 0 01-.149.4.525.525 0 01-.4.163.5.5 0 01-.39-.163.582.582 0 01-.156-.4.568.568 0 01.156-.39.532.532 0 01.39-.163.554.554 0 01.4.163z" class="cls-1" data-name="Path 363" transform="translate(-133.446 -188.355)"/><path id="Path_364" d="M246.106 252.721a1.483 1.483 0 01.561.568 1.654 1.654 0 01.192.8 2.591 2.591 0 01-.206 1.015 5.208 5.208 0 01-.667 1.064c-.305.4-.773.951-1.419 1.675h2.406l-.092.646h-3.186v-.61q1.022-1.185 1.49-1.788a5.279 5.279 0 00.66-1.043 2.342 2.342 0 00.184-.915 1.036 1.036 0 00-.234-.71.816.816 0 00-.632-.248 1.128 1.128 0 00-.582.149 2.015 2.015 0 00-.5.468l-.5-.376a1.966 1.966 0 011.646-.887 1.752 1.752 0 01.879.192z" class="cls-1" data-name="Path 364" transform="translate(-135.203 -186.324)"/><path id="Path_365" d="M253.134 253.276a5.96 5.96 0 010 4.563 1.469 1.469 0 01-1.348.759 1.49 1.49 0 01-1.355-.759 4.62 4.62 0 01-.454-2.285q0-3.044 1.809-3.044a1.476 1.476 0 011.348.766zm-2.129.412a7.338 7.338 0 000 3.732.781.781 0 001.5 0 7.366 7.366 0 000-3.74.781.781 0 00-.745-.553.8.8 0 00-.724.561z" class="cls-1" data-name="Path 365" transform="translate(-137.058 -186.318)"/><path id="Path_366" d="M258.86 252.65v5.875h-.788v-5.052l-1.22.844-.362-.532 1.675-1.121z" class="cls-1" data-name="Path 366" transform="translate(-138.952 -186.36)"/><path id="Path_367" d="M265.6 256.4v.632h-.667v1.419h-.759v-1.419h-2.3v-.575l1.575-3.96.667.255-1.44 3.647h1.5l.078-1.6h.667v1.6z" class="cls-1" data-name="Path 367" transform="translate(-140.515 -186.316)"/><path id="Path_368" d="M273.542 257.262a2.6 2.6 0 01-.4-.22l-.149-.085a1.252 1.252 0 00-.192-.1.5.5 0 00-.17 0 .426.426 0 00-.3.114 1.853 1.853 0 00-.255.319l-.44-.241a2.129 2.129 0 01.433-.582.859.859 0 01.6-.227.979.979 0 01.369.071 4.251 4.251 0 01.4.22l.284.17a.476.476 0 00.22.05.433.433 0 00.291-.106 1.42 1.42 0 00.255-.3l.44.241a2.128 2.128 0 01-.426.561.844.844 0 01-.589.22.943.943 0 01-.383-.106z" class="cls-1" data-name="Path 368" transform="translate(-143.352 -187.402)"/><path id="Path_369" d="M90.85 173.173c0-4.336 1.419-7.77 4.258-10.254s7.266-3.69 13.234-3.69a41.865 41.865 0 0111.4 1.526v6.117a38.58 38.58 0 00-11.4-1.611q-5.833.057-8.331 2.079a7.31 7.31 0 00-2.5 6.032v35.806c0 5.038 3 7.217 9.019 6.642q5.932-.539 8.465-2.633v-22.593c2.228-.1 4.456-.2 6.684-.284v26.411a34.3 34.3 0 01-14.582 4.9c-10.843 1.15-16.243-2.569-16.25-11.531z" class="cls-1" data-name="Path 369" transform="translate(-90.85 -159.23)"/><path id="Path_370" d="M169.1 218.353q-1.909-8.026-3.818-16.072-8.409.22-16.817.589-1.916 8.3-3.846 16.676l-6.628.468c4.754-20.167 9.5-39.936 14.256-59.443h9.331c4.712 19.351 9.431 38.51 14.192 57.612q-3.321.071-6.642.177m-19.443-20.94q7.146-.263 14.291-.44-3.591-15.136-7.167-30.413-3.548 15.327-7.1 30.853" class="cls-1" data-name="Path 370" transform="translate(-104.54 -159.619)"/><path id="Path_371" d="M195.994 160.57h6.628v52.17q9.537-.064 19.074.106v5.315q-12.858-.255-25.716 0v-57.556" class="cls-1" data-name="Path 371" transform="translate(-121.38 -159.619)"/><path id="Path_372" d="M234 172.991a12.879 12.879 0 014.009-9.849c2.668-2.512 6.606-3.782 11.8-3.782s9.133 1.277 11.815 3.846a13.4 13.4 0 014.023 10.119q0 16.47.035 32.925 0 6.237-4 9.807c-2.675 2.384-6.628 3.406-11.864 3.172s-9.175-1.611-11.822-4.172a13.121 13.121 0 01-3.981-9.934v-32.159m25.02.319q0-8.281-9.225-8.324t-9.189 8.132v32c0 5.506 3.073 8.324 9.225 8.572s9.225-2.342 9.225-7.933q0-16.221-.035-32.443" class="cls-1" data-name="Path 372" transform="translate(-132.421 -159.268)"/><path id="Path_373" d="M319.175 183.906v-9.225c0-4.336-1.277-7.806-3.825-10.31s-6.315-3.754-11.3-3.761h-15.21l.064 59.528q3.307.255 6.621.546v-24.126q4.619.248 9.225.525 4.577 12.517 9.147 25.453 3.626.4 7.252.866-4.967-13.787-9.934-27.014c5.336-1.6 8.011-5.769 8.011-12.475m-15.435 7.487q-4.151-.213-8.3-.4v-24.756l8.3.085q8.785.085 8.778 8.458v8.728c0 5.585-2.916 8.2-8.764 7.884" class="cls-1" data-name="Path 373" transform="translate(-148.347 -159.631)"/></g></symbol><symbol id="logo_white"><g id="logo_white" data-name="logo_white" transform="translate(0 .001)"><path id="Path_369" d="M90.85 173.173c0-4.336 1.419-7.77 4.258-10.254s7.266-3.69 13.234-3.69a41.865 41.865 0 0111.4 1.526v6.117a38.58 38.58 0 00-11.4-1.611q-5.833.057-8.331 2.079a7.31 7.31 0 00-2.5 6.032v35.806c0 5.038 3 7.217 9.019 6.642q5.932-.539 8.465-2.633v-22.593c2.228-.1 4.456-.2 6.684-.284v26.411a34.3 34.3 0 01-14.582 4.9c-10.843 1.15-16.243-2.569-16.25-11.531z" class="cls-1" data-name="Path 369" transform="translate(-90.85 -159.23)"/><path id="Path_370" d="M169.1 218.353q-1.909-8.026-3.818-16.072-8.409.22-16.817.589-1.916 8.3-3.846 16.676l-6.628.468c4.754-20.167 9.5-39.936 14.256-59.443h9.331c4.712 19.351 9.431 38.51 14.192 57.612q-3.321.071-6.642.177m-19.443-20.94q7.146-.263 14.291-.44-3.591-15.136-7.167-30.413-3.548 15.327-7.1 30.853" class="cls-1" data-name="Path 370" transform="translate(-104.54 -159.619)"/><path id="Path_371" d="M195.994 160.57h6.628v52.17q9.537-.064 19.074.106v5.315q-12.858-.255-25.716 0v-57.556" class="cls-1" data-name="Path 371" transform="translate(-121.38 -159.619)"/><path id="Path_372" d="M234 172.991a12.879 12.879 0 014.009-9.849c2.668-2.512 6.606-3.782 11.8-3.782s9.133 1.277 11.815 3.846a13.4 13.4 0 014.023 10.119q0 16.47.035 32.925 0 6.237-4 9.807c-2.675 2.384-6.628 3.406-11.864 3.172s-9.175-1.611-11.822-4.172a13.121 13.121 0 01-3.981-9.934v-32.159m25.02.319q0-8.281-9.225-8.324t-9.189 8.132v32c0 5.506 3.073 8.324 9.225 8.572s9.225-2.342 9.225-7.933q0-16.221-.035-32.443" class="cls-1" data-name="Path 372" transform="translate(-132.421 -159.268)"/><path id="Path_373" d="M319.175 183.906v-9.225c0-4.336-1.277-7.806-3.825-10.31s-6.315-3.754-11.3-3.761h-15.21l.064 59.528q3.307.255 6.621.546v-24.126q4.619.248 9.225.525 4.577 12.517 9.147 25.453 3.626.4 7.252.866-4.967-13.787-9.934-27.014c5.336-1.6 8.011-5.769 8.011-12.475m-15.435 7.487q-4.151-.213-8.3-.4v-24.756l8.3.085q8.785.085 8.778 8.458v8.728c0 5.585-2.916 8.2-8.764 7.884" class="cls-1" data-name="Path 373" transform="translate(-148.347 -159.631)"/></g></symbol><symbol id="sprite"/><symbol id="x_mark_faq"><g data-name="Union 24" fill="#fff"><path d="M24.5 39.5h-9v-15H.5v-9h15V.5h9v15h15v9h-15v15z"/><path d="M24 39V24h15v-8H24V1h-8v15H1v8h15v15h8m1 1H15V25H0V15h15V0h10v15h15v10H25v15z" fill="#999"/></g></symbol><symbol id="x_mark_ucr"><path data-name="Union 20" d="M408 571.2L163.2 816 0 652.8 244.8 408 0 163.2 163.2 0 408 244.8 652.8 0 816 163.2 571.2 408 816 652.8 652.8 816z" opacity=".5" fill="url(#a)"/></symbol></svg>