<svg xmlns="http://www.w3.org/2000/svg" width="204.6" height="204.6" viewBox="0 0 204.6 204.6">
    <defs>
        <style>
            .cls-1{opacity:.7}.cls-2{fill:none}.cls-3{fill:#fff}
        </style>
    </defs>
    <g id="play-circle-line" class="cls-1">
        <path id="Path_397" d="M0 0h204.6v204.6H0z" class="cls-2" data-name="Path 397"/>
        <path id="Path_398" d="M87.25 172.5a85.25 85.25 0 1 1 85.25-85.25 85.248 85.248 0 0 1-85.25 85.25zm0-17.05a68.2 68.2 0 1 0-68.2-68.2 68.2 68.2 0 0 0 68.2 68.2zM75.5 56.688l41.6 27.723a3.41 3.41 0 0 1 0 5.678l-41.6 27.723a3.41 3.41 0 0 1-5.294-2.83V59.518a3.41 3.41 0 0 1 5.3-2.83z" class="cls-3" data-name="Path 398" transform="translate(15.05 15.05)"/>
    </g>
</svg>
