<svg xmlns="http://www.w3.org/2000/svg" width="172.801" height="72.284" viewBox="0 0 172.801 72.284">
    <defs>
        <style>
            .cls-1{fill:#ffffff}
        </style>
    </defs>
    <g id="logo_white" data-name="logo_white" transform="translate(0 .001)">
        <path id="Path_369" d="M90.85 173.173c0-4.336 1.419-7.77 4.258-10.254s7.266-3.69 13.234-3.69a41.865 41.865 0 0 1 11.4 1.526v6.117a38.58 38.58 0 0 0-11.4-1.611q-5.833.057-8.331 2.079a7.31 7.31 0 0 0-2.5 6.032v35.806c0 5.038 3 7.217 9.019 6.642q5.932-.539 8.465-2.633v-22.593c2.228-.1 4.456-.2 6.684-.284v26.411a34.3 34.3 0 0 1-14.582 4.9c-10.843 1.15-16.243-2.569-16.25-11.531z" class="cls-1" data-name="Path 369" transform="translate(-90.85 -159.23)"/>
        <path id="Path_370" d="M169.1 218.353q-1.909-8.026-3.818-16.072-8.409.22-16.817.589-1.916 8.3-3.846 16.676l-6.628.468c4.754-20.167 9.5-39.936 14.256-59.443h9.331c4.712 19.351 9.431 38.51 14.192 57.612q-3.321.071-6.642.177m-19.443-20.94q7.146-.263 14.291-.44-3.591-15.136-7.167-30.413-3.548 15.327-7.1 30.853" class="cls-1" data-name="Path 370" transform="translate(-104.54 -159.619)"/>
        <path id="Path_371" d="M195.994 160.57h6.628v52.17q9.537-.064 19.074.106v5.315q-12.858-.255-25.716 0v-57.556" class="cls-1" data-name="Path 371" transform="translate(-121.38 -159.619)"/>
        <path id="Path_372" d="M234 172.991a12.879 12.879 0 0 1 4.009-9.849c2.668-2.512 6.606-3.782 11.8-3.782s9.133 1.277 11.815 3.846a13.4 13.4 0 0 1 4.023 10.119q0 16.47.035 32.925 0 6.237-4 9.807c-2.675 2.384-6.628 3.406-11.864 3.172s-9.175-1.611-11.822-4.172a13.121 13.121 0 0 1-3.981-9.934v-32.159m25.02.319q0-8.281-9.225-8.324t-9.189 8.132v32c0 5.506 3.073 8.324 9.225 8.572s9.225-2.342 9.225-7.933q0-16.221-.035-32.443" class="cls-1" data-name="Path 372" transform="translate(-132.421 -159.268)"/>
        <path id="Path_373" d="M319.175 183.906v-9.225c0-4.336-1.277-7.806-3.825-10.31s-6.315-3.754-11.3-3.761h-15.21l.064 59.528q3.307.255 6.621.546v-24.126q4.619.248 9.225.525 4.577 12.517 9.147 25.453 3.626.4 7.252.866-4.967-13.787-9.934-27.014c5.336-1.6 8.011-5.769 8.011-12.475m-15.435 7.487q-4.151-.213-8.3-.4v-24.756l8.3.085q8.785.085 8.778 8.458v8.728c0 5.585-2.916 8.2-8.764 7.884" class="cls-1" data-name="Path 373" transform="translate(-148.347 -159.631)"/>
    </g>
</svg>