<svg xmlns="http://www.w3.org/2000/svg" width="40" height="40" viewBox="0 0 40 40">
  <g id="Union_24" data-name="Union 24" transform="translate(14046)" fill="#fff">
    <path d="M -14021.5 39.5 L -14030.5 39.5 L -14030.5 25.00005912780762 L -14030.5 24.50005912780762 L -14031 24.50005912780762 L -14045.5 24.50005912780762 L -14045.5 15.49993991851807 L -14031 15.49993991851807 L -14030.5 15.49993991851807 L -14030.5 14.99993991851807 L -14030.5 0.5 L -14021.5 0.5 L -14021.5 14.99993991851807 L -14021.5 15.49993991851807 L -14021 15.49993991851807 L -14006.5 15.49993991851807 L -14006.5 24.50005912780762 L -14021 24.50005912780762 L -14021.5 24.50005912780762 L -14021.5 25.00005912780762 L -14021.5 39.5 Z" stroke="none"/>
    <path d="M -14022 39 L -14022 25.00005912780762 L -14022 24.00005912780762 L -14021 24.00005912780762 L -14007 24.00005912780762 L -14007 15.99993991851807 L -14021 15.99993991851807 L -14022 15.99993991851807 L -14022 14.99993991851807 L -14022 1 L -14030 1 L -14030 14.99993991851807 L -14030 15.99993991851807 L -14031 15.99993991851807 L -14045 15.99993991851807 L -14045 24.00005912780762 L -14031 24.00005912780762 L -14030 24.00005912780762 L -14030 25.00005912780762 L -14030 39 L -14022 39 M -14021 40 L -14031 40 L -14031 25.00005912780762 L -14046 25.00005912780762 L -14046 14.99993991851807 L -14031 14.99993991851807 L -14031 0 L -14021 0 L -14021 14.99993991851807 L -14006 14.99993991851807 L -14006 25.00005912780762 L -14021 25.00005912780762 L -14021 40 Z" stroke="none" fill="#999"/>
  </g>
</svg>